# xmcd
# Track frame offsets:
# 150
# 13330
# 23624
# 38215
# 51262
# 61763
#
# Disc length: 1111 seconds
# Revision: 0
# Processed by: cddbd v1.5.2PL0 Copyright (c) Steve Scherf et al.
# Submitted via: VisiTrax 2.11.1.266 - For more info visit www.synapsa.com
#
DISCID=45045506
DTITLE=NAW - Euphonic
DYEAR=2010
DGENRE=
TTITLE0=Cocktails and Dancefloors
TTITLE1=Woman
TTITLE2=Dementia
TTITLE3=Creepin'
TTITLE4=Blurry
TTITLE5=Will. The
EXTD=
EXTT0=
EXTT1=
EXTT2=
EXTT3=
EXTT4=
EXTT5=
PLAYORDER=
